<?xml version="1.0" encoding="UTF-8" standalone="no"?>
<!-- Created with Inkscape (http://www.inkscape.org/) -->

<svg
    width="24.725105mm"
    height="20.508308mm"
    viewBox="0 0 24.725105 20.508308"
    version="1.1"
    id="svg1"
    inkscape:export-filename="位图.svg"
    inkscape:export-xdpi="96"
    inkscape:export-ydpi="96"
    xmlns:inkscape="http://www.inkscape.org/namespaces/inkscape"
    xmlns:sodipodi="http://sodipodi.sourceforge.net/DTD/sodipodi-0.dtd"
    xmlns="http://www.w3.org/2000/svg"
    xmlns:svg="http://www.w3.org/2000/svg">
  <sodipodi:namedview
      id="namedview1"
      pagecolor="#ffffff"
      bordercolor="#000000"
      borderopacity="0.25"
      inkscape:showpageshadow="2"
      inkscape:pageopacity="0.0"
      inkscape:pagecheckerboard="0"
      inkscape:deskcolor="#d1d1d1"
      inkscape:document-units="mm" />
  <defs
      id="defs1">
    <clipPath
        id="clip-1">
      <path
          clip-rule="evenodd"
          d="m 162.42578,201.00781 c 3.47656,3.47266 4.08203,8.72656 1.82813,12.82422 4.22656,-3.88672 10.80859,-3.78125 14.91015,0.32031 4.21094,4.21094 4.21094,11.03907 0,15.2461 -2.875,2.8789 -6.97265,3.78906 -10.62109,2.73828 3.88281,5.98437 3.19922,14.07031 -2.05078,19.32031 -6.03516,6.03516 -15.82032,6.03516 -21.85547,0 -4.47266,-4.47266 -5.63281,-11.00781 -3.47266,-16.54687 -6.92187,5.8164 -17.25781,5.46875 -23.76953,-1.03907 -6.8789,-6.8789 -6.8789,-18.02734 0,-24.90625 6.87891,-6.8789 18.02734,-6.8789 24.90625,0 0.79688,0.79688 1.5,1.64844 2.10938,2.54688 -1,-3.6211 -0.0742,-7.66016 2.76953,-10.50391 4.21093,-4.21094 11.03906,-4.21094 15.24609,0 z M 154,212 c -6.07422,0 -11,4.92578 -11,11 0,6.07422 4.92578,11 11,11 6.07422,0 11,-4.92578 11,-11 0,-6.07422 -4.92578,-11 -11,-11 z m 0,0"
          id="path2-9" />
    </clipPath>
  </defs>
  <g
      inkscape:label="图层 1"
      inkscape:groupmode="layer"
      id="layer1"
      style="display:inline"
      transform="translate(-92.604166,-138.37709)">
    <g
        clip-path="url(#clip-1)"
        id="g5"
        transform="matrix(0.35277777,0,0,0.35277777,53.010031,68.58014)"
        style="display:inline">
      <path
          fill-rule="nonzero"
          fill="#d53420"
          fill-opacity="1"
          d="m 107.23438,260.98437 h 80.08593 v -68.13281 h -80.08593 z m 0,0"
          id="path5-2"
          style="display:inline" />
    </g>
  </g>
</svg>
